<?xml version="1.0" encoding="UTF-8"?>
<!DOCTYPE svg PUBLIC "-//W3C//DTD SVG 1.1//EN" "http://www.w3.org/Graphics/SVG/1.1/DTD/svg11.dtd">
<!-- Creator: CorelDRAW X6 -->
<svg xmlns="http://www.w3.org/2000/svg" xml:space="preserve" width="180mm" height="40mm" version="1.1" style="shape-rendering:geometricPrecision; text-rendering:geometricPrecision; image-rendering:optimizeQuality; fill-rule:evenodd; clip-rule:evenodd"
viewBox="0 0 18000 4000"
 xmlns:xlink="http://www.w3.org/1999/xlink">
 <defs>
  <style type="text/css">
   <![CDATA[
    .fil0 {fill:#163E73;fill-rule:nonzero}
   ]]>
  </style>
 </defs>
 <g id="Слой_x0020_1">
  <metadata id="CorelCorpID_0Corel-Layer"/>
  <path class="fil0" d="M1402 406l330 0c6,0 13,2 18,5l2083 1415c9,6 14,15 14,26l0 226c0,25 -28,40 -49,26l-2413 -1641c-26,-17 -13,-57 18,-57zm4015 672l359 454 112 0 0 -112 -307 -377c69,-22 123,-60 163,-115 40,-55 60,-120 60,-197 0,-95 -34,-172 -101,-231 -68,-58 -159,-86 -276,-86l-314 0 0 1117 164 0 0 -454 140 0zm5950 365c-80,81 -185,121 -313,121 -129,0 -233,-40 -313,-121 -80,-81 -120,-180 -120,-297l0 -717 164 0 0 719c0,80 24,147 73,201 49,54 114,81 196,81 86,0 154,-27 206,-81 52,-54 78,-121 78,-201l0 -719 149 0 0 717c0,118 -40,217 -120,297zm-5941 -886c66,0 118,18 156,53 39,35 58,78 58,129 0,62 -19,111 -58,149 -39,38 -91,57 -156,57l-149 0 0 -387 149 0zm1079 876l10 100 134 0 0 -745 -149 0 0 438c0,55 -15,101 -45,139 -30,38 -78,57 -144,57 -112,0 -168,-66 -168,-198l0 -436 -149 0 0 445c0,93 23,169 69,227 46,58 117,87 214,87 94,0 170,-38 228,-115zm806 48c49,-44 73,-101 73,-169 0,-63 -20,-109 -60,-139 -40,-30 -93,-53 -159,-68l-79 -18c-83,-19 -125,-51 -125,-97 0,-27 10,-49 31,-66 21,-17 53,-25 95,-25 24,0 46,3 66,10 20,6 35,14 46,22 11,8 21,17 30,27 9,10 14,17 16,22 2,4 3,8 4,10l97 0 0 -97c-17,-29 -44,-56 -82,-80 -41,-26 -100,-39 -179,-39 -83,0 -148,22 -195,66 -47,44 -70,97 -70,159 0,67 18,115 55,146 37,32 79,53 127,64l82 18c47,11 84,22 112,33 32,14 48,38 48,71 0,61 -47,91 -141,91 -21,0 -40,-2 -59,-6 -18,-4 -34,-9 -47,-14 -13,-5 -25,-12 -36,-19 -11,-7 -20,-15 -27,-22 -7,-7 -13,-14 -17,-19 -4,-5 -8,-10 -11,-14l-3 -6 -97 0 0 97c0,1 3,6 8,14 5,8 15,19 30,33 14,13 32,26 54,38 21,12 50,23 86,32 36,9 76,14 120,14 89,0 158,-22 207,-66zm689 0c49,-44 73,-101 73,-169 0,-63 -20,-109 -60,-139 -40,-30 -93,-53 -159,-68l-79 -18c-83,-19 -125,-51 -125,-97 0,-27 10,-49 31,-66 21,-17 53,-25 95,-25 24,0 46,3 66,10 20,6 35,14 46,22 11,8 21,17 30,27 9,10 14,17 16,22 2,4 3,8 4,10l97 0 0 -97c-17,-29 -44,-56 -82,-80 -41,-26 -100,-39 -179,-39 -83,0 -148,22 -195,66 -47,44 -70,97 -70,159 0,67 18,115 55,146 37,32 79,53 127,64l82 18c47,11 84,22 112,33 32,14 48,38 48,71 0,61 -47,91 -142,91 -21,0 -40,-2 -59,-6 -18,-4 -34,-9 -47,-14 -13,-5 -25,-12 -36,-19 -11,-7 -20,-15 -27,-22 -7,-7 -13,-14 -17,-19 -4,-5 -8,-10 -11,-14l-3 -6 -97 0 0 97c0,1 3,6 8,14 5,8 15,19 30,33 14,13 32,26 54,38 21,12 50,23 86,32 36,9 76,14 120,14 89,0 158,-22 207,-66zm378 -1021l-164 0 0 164 164 0 0 -164zm-7 328l-149 0 0 745 149 0 0 -745zm545 718c35,-26 63,-53 83,-80l18 107 119 0 0 -460c0,-98 -26,-173 -78,-223 -52,-51 -128,-76 -227,-76 -27,0 -52,2 -77,7 -24,4 -45,10 -63,17 -18,7 -34,15 -49,24 -15,9 -27,18 -36,26 -9,8 -18,16 -25,24 -7,7 -12,13 -15,17l-4 6 0 97 97 0 15 -22c10,-15 29,-30 57,-45 28,-15 60,-23 97,-23 107,0 161,57 161,170l0 46 -21 -6c-15,-3 -37,-6 -65,-10 -28,-3 -56,-5 -84,-5 -101,0 -177,20 -226,61 -50,41 -74,94 -74,161 0,67 22,122 66,165 44,44 106,66 186,66 62,0 111,-14 147,-42zm-253 -189c0,-32 12,-58 36,-78 24,-20 64,-31 118,-31 67,0 123,7 170,21l0 39c0,39 -18,75 -54,109 -36,34 -83,51 -141,51 -86,0 -130,-37 -130,-110zm811 -222c0,-55 15,-101 45,-139 30,-38 78,-57 144,-57 112,0 168,66 168,198l0 436 149 0 0 -445c0,-93 -23,-169 -69,-227 -46,-58 -117,-87 -214,-87 -94,0 -170,38 -228,115l-10 -100 -134 0 0 745 149 0 0 -438zm2317 0c0,-55 15,-101 45,-139 30,-38 78,-57 144,-57 112,0 168,66 168,198l0 436 149 0 0 -445c0,-93 -23,-169 -69,-227 -46,-58 -117,-87 -214,-87 -94,0 -170,38 -228,115l-10 -100 -134 0 0 745 149 0 0 -438zm848 -634l-164 0 0 164 164 0 0 -164zm-7 328l-149 0 0 745 149 0 0 -745zm838 0l-97 0 -261 544 -259 -544 -104 0 0 104 311 640 97 0 313 -648 0 -97zm577 745c82,-21 141,-56 177,-106l0 -1 0 -97 -97 0 -4 10c-4,6 -11,13 -22,22 -10,9 -23,18 -37,26 -14,8 -35,16 -61,22 -26,6 -55,10 -87,10 -72,0 -129,-21 -170,-64 -41,-43 -63,-101 -67,-174l554 0 6 -80c0,-99 -28,-179 -84,-238 -56,-60 -142,-89 -257,-89 -115,0 -205,37 -270,110 -65,73 -98,165 -98,276 0,117 33,211 100,282 67,71 162,106 286,106 48,0 91,-5 131,-15zm-147 -633c64,0 112,16 144,47 33,31 49,72 49,123l-407 0c23,-113 94,-170 213,-170zm646 201c0,-60 14,-108 42,-146 28,-38 68,-57 119,-57 16,0 31,2 44,5 13,3 24,8 33,13 8,5 16,11 23,17 7,6 13,13 17,19 4,6 8,12 10,17 2,5 4,9 5,12l1 6 97 0 0 -97c-7,-33 -27,-61 -60,-83 -33,-23 -74,-34 -125,-34 -95,0 -166,38 -211,113l-10 -98 -134 0 0 745 149 0 0 -432zm974 381c49,-44 73,-101 73,-169 0,-63 -20,-109 -60,-139 -40,-30 -93,-53 -159,-68l-79 -18c-83,-19 -125,-51 -125,-97 0,-27 10,-49 31,-66 21,-17 53,-25 95,-25 24,0 46,3 66,10 20,6 35,14 46,22 11,8 21,17 30,27 9,10 14,17 16,22 2,4 3,8 4,10l97 0 0 -97c-17,-29 -44,-56 -82,-80 -41,-26 -100,-39 -179,-39 -83,0 -148,22 -195,66 -47,44 -70,97 -70,159 0,67 18,115 55,146 37,32 79,53 127,64l82 18c47,11 84,22 112,33 32,14 48,38 48,71 0,61 -47,91 -141,91 -21,0 -40,-2 -59,-6 -18,-4 -34,-9 -47,-14 -13,-5 -25,-12 -36,-19 -11,-7 -20,-15 -27,-22 -7,-7 -13,-14 -17,-19 -4,-5 -8,-10 -11,-14l-3 -6 -97 0 0 97c0,1 3,6 8,14 5,8 15,19 30,33 14,13 32,26 54,38 21,12 50,23 86,32 36,9 76,14 120,14 89,0 158,-22 207,-66zm378 -1021l-164 0 0 164 164 0 0 -164zm-7 328l-149 0 0 745 149 0 0 -745zm644 724c31,-24 52,-45 63,-64l0 -97 -97 0 -1 4c0,3 -1,6 -2,10 -2,4 -4,8 -7,13 -3,5 -7,10 -12,14 -5,4 -11,9 -18,13 -7,4 -16,8 -27,10 -11,2 -23,4 -36,4 -81,0 -122,-51 -122,-153l0 -353 292 0 0 -127 -292 0 0 -186 -134 0 -9 186 -127 0 0 127 121 0 0 368c0,177 90,265 270,265 61,0 107,-12 139,-36zm843 -724l-97 0 -258 486 -262 -486 -104 0 0 104 286 521 -225 387 0 104 104 0 556 -1020 0 -97zm-11687 2337c69,-74 104,-167 104,-277 0,-109 -35,-201 -104,-275 -69,-74 -161,-111 -275,-111 -115,0 -207,37 -276,111 -69,74 -103,166 -103,275 0,110 34,203 103,277 69,74 160,112 276,112 114,0 206,-37 275,-112zm1627 102l-164 0 0 -986 -359 0 0 -134 882 0 0 134 -359 0 0 986zm-2131 -379c0,-74 20,-136 60,-185 40,-49 96,-74 170,-74 73,0 130,25 170,74 40,49 60,111 60,185 0,76 -20,139 -59,188 -39,49 -96,74 -171,74 -74,0 -131,-25 -171,-74 -39,-49 -59,-112 -59,-188zm952 -244l240 0 0 -127 -240 0 0 -125c0,-85 33,-128 100,-128 13,0 24,2 34,5 10,3 18,7 23,11 5,4 10,9 14,14 4,5 6,9 7,12 1,2 1,4 1,5l101 0 0 -97c-13,-24 -35,-44 -66,-60 -31,-16 -70,-25 -117,-25 -77,0 -138,23 -182,70 -44,47 -66,112 -66,195l0 122 -134 0 0 127 134 0 0 618 149 0 0 -618zm1684 186c0,-60 14,-108 42,-146 28,-38 68,-57 119,-57 16,0 31,2 44,5 13,3 24,8 33,13 8,5 16,11 23,17 7,6 13,13 17,19 4,6 8,12 10,17 2,5 4,9 5,12l1 6 97 0 0 -97c-7,-33 -27,-61 -60,-83 -33,-23 -74,-34 -125,-34 -95,0 -166,38 -211,113l-10 -98 -134 0 0 745 149 0 0 -432zm848 405c35,-26 63,-53 83,-80l18 107 119 0 0 -460c0,-98 -26,-173 -78,-223 -52,-51 -128,-76 -227,-76 -27,0 -52,2 -77,7 -24,4 -45,10 -63,17 -18,7 -34,15 -49,24 -15,9 -27,18 -37,26 -9,8 -18,16 -25,24 -7,7 -12,13 -15,17l-4 6 0 97 97 0 15 -22c10,-15 29,-30 57,-45 28,-15 60,-23 97,-23 107,0 161,57 161,170l0 46 -21 -6c-15,-3 -36,-6 -65,-10 -28,-3 -56,-5 -84,-5 -101,0 -177,20 -226,61 -50,41 -74,94 -74,161 0,67 22,122 66,165 44,44 106,66 186,66 62,0 111,-14 147,-42zm-253 -189c0,-32 12,-58 36,-78 24,-20 64,-31 118,-31 67,0 123,7 170,21l0 39c0,39 -18,75 -54,109 -36,34 -83,51 -141,51 -86,0 -130,-37 -130,-110zm811 -222c0,-55 15,-101 45,-139 30,-38 78,-57 144,-57 112,0 168,66 168,198l0 436 149 0 0 -445c0,-93 -23,-169 -69,-227 -46,-58 -117,-87 -214,-87 -94,0 -170,38 -228,115l-10 -100 -134 0 0 745 149 0 0 -438zm1160 386c49,-44 73,-101 73,-169 0,-63 -20,-109 -60,-139 -40,-30 -93,-53 -159,-68l-79 -18c-83,-19 -125,-51 -125,-97 0,-27 10,-49 31,-66 21,-17 53,-25 95,-25 24,0 46,3 66,10 20,6 35,14 46,22 11,8 21,17 30,27 9,10 14,17 16,22 2,4 3,8 4,10l97 0 0 -97c-17,-29 -44,-56 -82,-80 -41,-26 -100,-39 -179,-39 -83,0 -148,22 -195,66 -47,44 -70,97 -70,159 0,67 18,115 55,146 37,32 79,53 127,64l82 18c47,11 84,22 112,33 32,14 48,38 48,71 0,61 -47,91 -141,91 -21,0 -40,-2 -59,-6 -18,-4 -34,-9 -47,-14 -13,-5 -25,-12 -36,-19 -11,-7 -20,-15 -27,-22 -7,-7 -13,-14 -17,-19 -4,-5 -8,-10 -11,-14l-3 -6 -97 0 0 97c0,1 3,6 8,14 5,8 15,19 30,33 14,13 32,26 54,38 21,12 50,23 86,32 36,9 76,14 120,14 89,0 158,-22 207,-66zm372 -65c61,87 147,131 259,131 106,0 191,-37 254,-112 63,-74 95,-167 95,-277 0,-109 -32,-201 -95,-275 -63,-74 -148,-111 -254,-111 -114,0 -201,44 -261,133l-13 -118 -134 0 0 1117 149 0 0 -488zm63 -71c-42,-50 -63,-112 -63,-187 0,-73 21,-135 63,-185 42,-50 97,-74 167,-74 75,0 131,24 171,73 39,49 59,111 59,186 0,76 -20,139 -59,188 -39,49 -96,74 -171,74 -70,0 -125,-25 -167,-75zm1310 90c69,-74 104,-167 104,-277 0,-109 -34,-201 -104,-275 -69,-74 -161,-111 -275,-111 -115,0 -207,37 -276,111 -68,74 -103,166 -103,275 0,110 34,203 103,277 69,74 160,112 276,112 114,0 206,-37 275,-112zm-504 -277c0,-74 20,-136 60,-185 40,-49 96,-74 170,-74 73,0 130,25 170,74 40,49 60,111 60,185 0,76 -20,139 -59,188 -39,49 -96,74 -171,74 -74,0 -131,-25 -171,-74 -39,-49 -59,-112 -59,-188zm907 -58c0,-60 14,-108 42,-146 28,-38 67,-57 119,-57 16,0 31,2 44,5 13,3 24,8 33,13 8,5 16,11 23,17 7,6 13,13 17,19 4,6 8,12 10,17 2,5 4,9 5,12l1 6 97 0 0 -97c-7,-33 -27,-61 -60,-83 -33,-23 -74,-34 -125,-34 -95,0 -166,38 -211,113l-10 -98 -134 0 0 745 149 0 0 -432zm988 411c31,-24 52,-45 63,-64l0 -97 -97 0 -1 4c0,3 -1,6 -2,10 -2,4 -4,8 -7,13 -3,5 -7,10 -12,14 -5,4 -11,9 -18,13 -7,4 -16,8 -27,10 -11,2 -23,4 -36,4 -81,0 -122,-51 -122,-153l0 -353 292 0 0 -127 -292 0 0 -186 -134 0 -9 186 -127 0 0 127 121 0 0 368c0,177 90,265 270,265 61,0 107,-12 139,-36zm-11957 -2320l-728 -469c-5,-3 -11,-5 -17,-5l-164 0c-17,0 -32,14 -32,31l0 115c0,11 5,20 14,26l760 488c14,9 33,5 43,-8l124 -178zm2268 1548l-393 -273c-14,-10 -34,-6 -44,8l-105 152c-10,14 -6,34 8,43l499 340c21,14 49,-1 49,-26l0 -219c0,-10 -5,-20 -13,-26zm-1947 167l-179 -122c-14,-10 -34,-6 -44,8l-738 1063c-14,21 1,49 26,49l226 0c10,0 20,-5 26,-14l683 -984zm13 -889l-1225 -833c-21,-14 -49,1 -49,26l0 224c0,10 5,20 14,26l888 604c14,10 18,29 8,43l-905 1302c-4,5 -6,11 -6,18l0 234 0 102c0,31 40,43 58,18l1217 -1762zm681 762l1218 828c21,14 49,-1 49,-26l0 -224c0,-10 -5,-20 -14,-26l-1292 -878c-14,-10 -34,-6 -44,8l-967 1393c-14,21 1,49 26,49l226 0c10,0 20,-5 26,-14l772 -1111z"/>
 </g>
</svg>
